<svg width="73" height="87" viewBox="0 0 73 87" fill="none" xmlns="http://www.w3.org/2000/svg">
<path d="M62.4917 19.4577C56.0012 15.4398 44.3433 19.1573 37.3891 22.938C37.2931 22.9901 37.1808 22.9893 37.0855 22.936C29.0784 18.4554 15.3693 15.1101 6.72833 24.1438C-7.48648 39.0047 4.00118 73.3071 12.1257 81.1381C23.3302 91.9375 31.159 84.161 37.1823 83.0467C37.2188 83.0399 37.2548 83.0399 37.2914 83.0467C43.3147 84.1608 51.1439 91.9377 62.3485 81.1381C66.5887 77.0511 71.1764 64.9103 72.5753 52.1233C72.597 51.9251 72.4268 51.758 72.2282 51.7749C65.2627 52.3679 63.1375 50.0578 63.0842 43.4207C63.083 43.2708 62.9749 43.1385 62.8289 43.1046C56.0094 41.5228 54.4238 32.9742 60.7712 28.5086C60.9339 28.3941 60.9601 28.1572 60.827 28.0093C57.7513 24.5919 59.7769 21.0551 62.3994 20.0554C62.6551 19.9579 62.7243 19.6017 62.4917 19.4577Z" fill="#A02828"/>
<path d="M32.5637 6.15014L30.6796 7.07613C30.5119 7.15853 30.4513 7.36592 30.5484 7.52549C32.7374 11.1207 35 16.6871 36.5306 20.884C36.6639 21.2496 37.246 21.0961 37.1743 20.7136C36.0678 14.8133 34.9028 10.9657 32.9935 6.31353C32.9245 6.14525 32.7269 6.0699 32.5637 6.15014Z" fill="#672F1D"/>
<path d="M58.8414 0.00370735C39.9699 -0.182374 40.5449 6.64158 38.4435 19.3255C38.4039 19.5641 38.6403 19.7602 38.8673 19.6764C50.2054 15.489 55.0633 12.5907 59.1435 0.421137C59.211 0.219775 59.0537 0.00580132 58.8414 0.00370735Z" fill="#CCBE48"/>
</svg>
