<?xml version="1.0" encoding="UTF-8"?>
<svg id="Layer_2" data-name="Layer 2" xmlns="http://www.w3.org/2000/svg" viewBox="0 0 1000 800">
  <defs>
    <style>
      .cls-1 {
        fill: #4c0004;
      }
    </style>
  </defs>
  <path class="cls-1" d="M773.19,90.56c-64.05,0-142.1,9.39-191.2,156.9v108.8c59.52-142.22,106.8-229.68,178.06-228.1,22.64,0,56.62,5,64.88,37.89,5.46,21.76-15.05,61.63-15.32,99.72,0,29.12,23.61,58.29,52.26,63.74,31.65,6.03,68.64-15.34,68.64-63.44,3.89-96.81-53.3-175.51-157.32-175.51h0Z"/>
  <path class="cls-1" d="M809.74,540.66c-2.5,46.6,14.1,159.7-96.3,159.7s-142.01-110.1-142.01-156.31c0-69.4.5-261.19,0-288.09-.9-47.9-41.67-165.4-224.27-165.4s-222.5,43.1-262.4,95.2c-20.8,27.2-26.9,90.8,22.4,105.7,54.8,16.4,84.2-31.7,90.8-52.3,10.5-32.4,47.2-107,157.7-105,106.8,2.1,108.6,79.4,108.6,96.5v76.7c-380.2,57.3-387,245.1-387,245.1,0,0-35.02,185.5,152,185.5,151.56,0,243.9-131.7,243.9-131.7,16.4,55.5,103.18,131.7,240.28,131.7,215.4,0,217.9-154.7,217.2-197.6.06-79.72-112.12-95.01-120.9.3h0ZM464.44,475.76c.1,29.94-187.74,232.88-281.94,132.46-7.68-8.18-11.34-19.36-13.56-30.36-37.78-186.66,295.42-221.6,295.42-221.6.01,41.2.19,79.23.08,119.5h0Z"/>
</svg>