<svg width="116" height="146" viewBox="0 0 116 146" fill="none" xmlns="http://www.w3.org/2000/svg">
<path d="M99.1919 38.385C88.8898 32.0075 70.3854 37.9081 59.347 43.9092C59.1947 43.992 59.0165 43.9907 58.8652 43.906C46.1556 36.794 24.3954 31.4841 10.6798 45.8232C-11.8832 69.4116 6.351 123.859 19.247 136.289C37.0316 153.431 49.4582 141.087 59.0187 139.319C59.0768 139.308 59.134 139.308 59.192 139.319C68.7526 141.087 81.1799 153.431 98.9647 136.289C105.695 129.802 112.977 110.531 115.197 90.2345C115.232 89.92 114.962 89.6548 114.647 89.6816C103.59 90.6229 100.217 86.956 100.132 76.421C100.13 76.1831 99.9589 75.9731 99.7272 75.9194C88.9027 73.4085 86.3859 59.8396 96.4612 52.7513C96.7194 52.5696 96.7608 52.1935 96.5496 51.9588C91.6676 46.5344 94.8828 40.9204 99.0455 39.3337C99.4514 39.179 99.5612 38.6136 99.1919 38.385Z" fill="url(#paint0_linear_77_301)"/>
<path d="M51.6877 17.2621L48.6971 18.7319C48.431 18.8627 48.3348 19.1919 48.489 19.4452C51.9634 25.1518 55.5549 33.9873 57.9844 40.649C58.196 41.2293 59.12 40.9855 59.0061 40.3784C57.2498 31.013 55.4007 24.9057 52.3701 17.5215C52.2605 17.2544 51.9469 17.1348 51.6877 17.2621Z" fill="#672F1D"/>
<path d="M93.3979 7.50599C63.4436 7.21063 64.3563 18.0422 61.0207 38.1751C60.9579 38.5539 61.3331 38.8652 61.6933 38.7322C79.6902 32.0855 87.4011 27.4851 93.8775 8.16857C93.9847 7.84895 93.735 7.50932 93.3979 7.50599Z" fill="url(#paint1_linear_77_301)"/>
<defs>
<linearGradient id="paint0_linear_77_301" x1="57.6313" y1="35.6306" x2="11.7251" y2="181.548" gradientUnits="userSpaceOnUse">
<stop stop-color="#ED514F"/>
<stop offset="0.403846" stop-color="#A02828"/>
<stop offset="1" stop-color="#410F0D"/>
</linearGradient>
<linearGradient id="paint1_linear_77_301" x1="82.6486" y1="3.75739" x2="62.6883" y2="50.8939" gradientUnits="userSpaceOnUse">
<stop stop-color="#CCBE48"/>
<stop offset="1" stop-color="#665F24"/>
</linearGradient>
</defs>
</svg>
