<?xml version="1.0" encoding="UTF-8"?>
<svg id="B" xmlns="http://www.w3.org/2000/svg" viewBox="0 0 284.57 206.67">
  <defs>
    <style>
      .cls-1 {
        fill: #191919;
      }

      .cls-2 {
        fill: #a81e3f;
      }
    </style>
  </defs>
  <path class="cls-2" d="M.8,204.97s51.95,11.52,81.06-34.86c28.25-45,29.79-53.44,65.78-55.42,0,0-59.45-18.92-83.68,20.58-18.44,30.08-27.46,70.55-63.17,69.7Z"/>
  <path class="cls-1" d="M284.51,174.33c0-1.5-2.11-1.8-2.54-.36-12.3,41.21-57.47,27.55-69.01-8.45-15.4-48-19.34-50.83-61.08-50.83,0,.06-10.12,121.67,132.63,85.14v-25.5Z"/>
  <path class="cls-2" d="M160.02,45.68L136.01,0l-45.64,85.75c-.77,1.42,1.2,2.66,2.19,1.37,14.5-18.93,19.34-27.46,24.64-31.75l30.12,54.69s-4.35-37.42,12.71-64.37Z"/>
  <path class="cls-1" d="M284.57,7.07s-.04-.01-.06-.02v-.28C146.63-28.51,151.96,110.56,151.94,110.06c55.06,0,47.1-18.97,58.93-67.98,7.82-32.38,57.88-53.77,71.11-9.46.43,1.44,2.54,1.14,2.54-.36V7.06s.06,0,.06,0Z"/>
</svg>